<?xml version="1.0" encoding="UTF-8" standalone="no" ?>
<!DOCTYPE svg PUBLIC "-//W3C//DTD SVG 1.1//EN" "http://www.w3.org/Graphics/SVG/1.1/DTD/svg11.dtd">
<svg xmlns="http://www.w3.org/2000/svg" xmlns:xlink="http://www.w3.org/1999/xlink" version="1.1" width="1080" height="1080" viewBox="0 0 1080 1080" xml:space="preserve">
<desc>Created with Fabric.js 5.2.4</desc>
<defs>
</defs>
<g transform="matrix(1 0 0 1 540 540)" id="06b4df41-2e18-4ebe-a88a-44fbec985e88"  >
<rect style="stroke: none; stroke-width: 1; stroke-dasharray: none; stroke-linecap: butt; stroke-dashoffset: 0; stroke-linejoin: miter; stroke-miterlimit: 4; fill: rgb(255,255,255); fill-rule: nonzero; opacity: 1; visibility: hidden;" vector-effect="non-scaling-stroke"  x="-540" y="-540" rx="0" ry="0" width="1080" height="1080" />
</g>
<g transform="matrix(1 0 0 1 540 540)" id="854490eb-167a-4bbd-b1ff-23f2520d460c"  >
</g>
<g transform="matrix(1 0 0 1 540 540)"  >
<g style="" vector-effect="non-scaling-stroke"   >
		<g transform="matrix(1 0 0 1 116.71 -232.44)" clip-path="url(#CLIPPATH_4)"  >
<clipPath id="CLIPPATH_4" >
	<rect transform="matrix(1 0 0 1 0 0)" id="clip0_712_15" x="-37" y="-37" rx="0" ry="0" width="74" height="74" />
</clipPath>
<path style="stroke: none; stroke-width: 1; stroke-dasharray: none; stroke-linecap: butt; stroke-dashoffset: 0; stroke-linejoin: miter; stroke-miterlimit: 4; fill: rgb(0,0,128); fill-rule: evenodd; opacity: 1;" vector-effect="non-scaling-stroke"  transform=" translate(-271, -37.64)" d="M 288.496 37.6406 L 307.414 48.5629 L 298.664 63.7183 L 279.746 52.796 L 279.746 74.6406 L 262.246 74.6406 L 262.246 52.796 L 243.328 63.7184 L 234.578 48.5629 L 253.496 37.6406 L 234.578 26.7183 L 243.328 11.5629 L 262.246 22.4852 L 262.246 0.640625 L 279.746 0.640625 L 279.746 22.4852 L 298.664 11.563 L 307.414 26.7184 L 288.496 37.6406 Z" stroke-linecap="round" />
</g>
		<g transform="matrix(1 0 0 1 -131.27 247.57)"  >
<path style="stroke: none; stroke-width: 1; stroke-dasharray: none; stroke-linecap: butt; stroke-dashoffset: 0; stroke-linejoin: miter; stroke-miterlimit: 4; fill: rgb(0,0,128); fill-rule: evenodd; opacity: 1;" vector-effect="non-scaling-stroke"  transform=" translate(-23.01, -517.65)" d="M 22.4637 496.196 C 22.5354 495.955 22.7574 495.789 23.0093 495.789 C 23.2613 495.789 23.4833 495.955 23.555 496.196 C 23.555 496.196 24.5537 499.544 25.6241 503.134 C 27.3297 508.855 31.8045 513.33 37.5249 515.035 C 41.1154 516.106 44.463 517.104 44.463 517.104 C 44.704 517.176 44.8703 517.398 44.8703 517.65 C 44.8703 517.902 44.704 518.124 44.463 518.196 C 44.463 518.196 41.1154 519.194 37.5249 520.265 C 31.8045 521.97 27.3297 526.445 25.6241 532.166 C 24.5537 535.756 23.555 539.104 23.555 539.104 C 23.4833 539.345 23.2613 539.511 23.0093 539.511 C 22.7574 539.511 22.5354 539.345 22.4637 539.104 C 22.4637 539.104 21.465 535.756 20.3946 532.166 C 18.689 526.445 14.2142 521.97 8.49381 520.265 C 4.90328 519.194 1.55568 518.196 1.55568 518.196 C 1.31471 518.124 1.14844 517.902 1.14844 517.65 C 1.14844 517.398 1.31471 517.176 1.55568 517.104 C 1.55568 517.104 4.90328 516.106 8.49381 515.035 C 14.2142 513.33 18.689 508.855 20.3946 503.134 C 21.465 499.544 22.4637 496.196 22.4637 496.196 Z" stroke-linecap="round" />
</g>
</g>
</g>
<g transform="matrix(NaN NaN NaN NaN 0 0)"  >
<g style=""   >
</g>
</g>
</svg>