<?xml version="1.0" ?><svg data-name="Layer 1" id="Layer_1" viewBox="0 0 256 256" xmlns="http://www.w3.org/2000/svg"><defs><style>.cls-1,.cls-2{fill:none;stroke:#424242;stroke-linecap:round;stroke-linejoin:round;}.cls-1{stroke-width:6px;}.cls-2{stroke-width:4px;}</style></defs><title/><path class="cls-1" d="M213.43,243.34H71.07A38.74,38.74,0,0,1,32.34,204.6V77.54L80.8,18.24h107A46.71,46.71,0,0,1,234.48,65V222.3A21,21,0,0,1,213.43,243.34Z"/><path class="cls-2" d="M148.23,25.89h39.54A39.06,39.06,0,0,1,226.82,65v39.53"/><line class="cls-1" x1="46.04" x2="29.78" y1="60.64" y2="44.39"/><line class="cls-1" x1="48.58" x2="63.48" y1="20.78" y2="35.68"/><line class="cls-1" x1="21.52" x2="55.22" y1="53.89" y2="12.66"/><line class="cls-1" x1="140.58" x2="233.36" y1="18.24" y2="111.02"/><path class="cls-1" d="M168.48,149.6a35.07,35.07,0,1,1-70.14,0c0-19.37,35.07-72.69,35.07-72.69S168.48,130.23,168.48,149.6Z"/></svg>