<?xml version="1.0" ?><svg viewBox="0 0 64 64" xmlns="http://www.w3.org/2000/svg"><defs><style>.cls-1{fill:none;stroke:#000;stroke-linejoin:round;stroke-width:2px;}</style></defs><title/><g data-name="Layer 9" id="Layer_9"><line class="cls-1" x1="34" x2="34" y1="58" y2="20"/><line class="cls-1" x1="58" x2="58" y1="20" y2="58"/><polygon class="cls-1" points="60 20 32 20 36 14 56 14 60 20"/><polyline class="cls-1" points="32 62 32 58 60 58 60 62"/><rect class="cls-1" height="8" width="16" x="38" y="46"/><line class="cls-1" x1="41" x2="51" y1="50" y2="50"/><rect class="cls-1" height="18" width="16" x="38" y="24"/><path class="cls-1" d="M42,42V37a4,4,0,0,1,4-4h0a4,4,0,0,1,4,4v5"/><path class="cls-1" d="M4,62V50a3,3,0,0,1,3-3H7a3,3,0,0,1,3,3V62"/><line class="cls-1" x1="4" x2="10" y1="56" y2="56"/><line class="cls-1" x1="1" x2="63" y1="62" y2="62"/><path class="cls-1" d="M34,43H7a3,3,0,0,1-3-3H4a3,3,0,0,1,3-3H34"/><line class="cls-1" x1="7" x2="13" y1="43" y2="37"/><line class="cls-1" x1="13" x2="19" y1="43" y2="37"/><line class="cls-1" x1="19" x2="25" y1="43" y2="37"/><line class="cls-1" x1="25" x2="31" y1="43" y2="37"/><path class="cls-1" d="M19,11h0a3,3,0,0,0-3-3h0a3,3,0,0,0-3,3h0a3,3,0,0,0,3,3h0a3,3,0,0,1,3,3h0a3,3,0,0,1-3,3h0a3,3,0,0,1-3-3h0"/><line class="cls-1" x1="16" x2="16" y1="8" y2="5"/><line class="cls-1" x1="16" x2="16" y1="20" y2="23"/><circle class="cls-1" cx="16" cy="14" r="12"/></g></svg>